<?xml version="1.0" encoding="utf-8"?>
<!-- Generator: Adobe Illustrator 26.3.1, SVG Export Plug-In . SVG Version: 6.00 Build 0)  -->
<svg version="1.1" id="图层_1" xmlns="http://www.w3.org/2000/svg" xmlns:xlink="http://www.w3.org/1999/xlink" x="0px" y="0px"
	 viewBox="0 0 2048 512" style="enable-background:new 0 0 2048 512;" xml:space="preserve">
<style type="text/css">
	.st0{fill:#252525;}
	.st1{fill:#FFFFFF;}
	.st2{fill:#00BFA5;}
	.st3{fill:#007F6E;}
	.st4{fill:#1DE9B6;}
	.st5{fill:#0AD7AF;}
</style>
<rect y="0" class="st0" width="2048" height="512"/>
<path class="st1" d="M491.9,446L235.5,298v-84l26.4-15.3l54.1,45.4l26.6-31.6l16.5,14L308,256l184,106.2V258.9l53.7-64.1
	l-112.9-94.7L491.9,66l72.7,42v296.1L491.9,446z"/>
<path class="st2" d="M315.4,68.7l78.9,66.2l-79.5,94.7l-78.9-66.2L315.4,68.7z"/>
<path class="st3" d="M309.7,171.6l31.6,26.5l-26.5,31.6L309.7,171.6z"/>
<path class="st4" d="M455.1,286.8l-3.3,4l-27.3,32.5l-54.3-31.4l34.3-40.9l-94.7-79.5l79.5-94.7l142,119.2L455.1,286.8z
	 M377.1,379.8L377.1,379.8l-54.5,64.9l-47.4-39.7l47.4-56.5L377.1,379.8z"/>
<path class="st1" d="M826.7,318.5h-1.5c-1.6,10.6-7,19.4-16.2,26.4c-9.2,7-21.7,10.5-37.5,10.5c-11.6,0.1-23-2.3-33.6-6.9
	c-10.5-4.7-19.8-11.6-27.3-20.4c-7.8-9-13.9-20.2-18.3-33.6c-4.4-13.4-6.6-28.9-6.6-46.5c0-17.6,2.3-33.2,6.9-46.8
	c4.6-13.6,11.1-25,19.4-34.2c8.2-9.2,18.4-16.3,29.8-21c11.6-4.8,24.5-7.2,38.7-7.2c18.8,0,35,4,48.6,12.1
	c13.6,8.1,24.3,20.2,32.1,36.4L824,208.7c-3.1-8.1-8.3-15.3-15-20.9c-6.8-5.7-16.3-8.5-28.5-8.6c-14.2,0-25.5,4.1-33.9,12.3
	c-8.4,8.2-12.6,21.1-12.6,38.7v33.6c0,17.4,4.2,30.2,12.6,38.5c8.4,8.3,19.7,12.4,33.9,12.5c5.4,0,10.7-0.6,15.9-2
	c4.7-1.2,9.2-3.2,13.2-6c3.7-2.5,6.7-5.9,8.8-9.8c2.2-4.2,3.3-8.8,3.2-13.5v-10.5h-39v-38.1h82.5v116.7h-38.4L826.7,318.5z"/>
<path class="st1" d="M1056.8,351.8H898.1v-40.5l103.2-128.4h-98.1v-40.5h151.2v40.5L950.9,311.3h105.9L1056.8,351.8z"/>
<path class="st5" d="M1118.1,227.9c-9,0-15.7-2.2-20-6.8s-6.5-10.2-6.4-17.2v-6c0-7,2.2-12.8,6.4-17.2c4.3-4.5,11-6.8,20-6.8
	c9,0,15.7,2.2,20,6.8c4.3,4.5,6.5,10.2,6.4,17.2v6c0,7-2.1,12.8-6.4,17.2C1133.8,225.7,1127.2,227.9,1118.1,227.9z M1118.1,338
	c-9,0-15.7-2.2-20-6.8s-6.5-10.2-6.4-17.2v-6c0-7,2.2-12.8,6.4-17.2s11-6.8,20-6.8c9,0,15.7,2.2,20,6.8s6.5,10.2,6.4,17.2v6
	c0,7-2.2,12.8-6.4,17.2S1127.1,338,1118.1,338L1118.1,338z"/>
<path class="st5" d="M1217.1,227.9c-9,0-15.7-2.2-20-6.8s-6.5-10.2-6.4-17.2v-6c0-7,2.1-12.8,6.4-17.2c4.3-4.5,11-6.8,20-6.8
	c9,0,15.7,2.2,20,6.8c4.3,4.5,6.5,10.2,6.4,17.2v6c0,7-2.2,12.8-6.4,17.2C1232.8,225.7,1226.1,227.9,1217.1,227.9z M1217.1,338
	c-9,0-15.7-2.2-20-6.8s-6.5-10.2-6.4-17.2v-6c0-7,2.2-12.8,6.4-17.2s11-6.8,20-6.8c9,0,15.7,2.2,20,6.8s6.5,10.2,6.4,17.2v6
	c0,7-2.2,12.8-6.4,17.2S1226.1,338,1217.1,338L1217.1,338z"/>
<path class="st1" d="M1374.2,355.4c-14.2,0-27-2.2-38.4-6.8c-11.1-4.3-21.1-11.2-29.1-20.1c-8-8.9-14.2-20-18.6-33.3
	c-4.4-13.3-6.6-28.8-6.6-46.7c0-17.6,2.2-33.2,6.6-46.9c4.4-13.7,10.6-25.2,18.6-34.5c7.9-9.2,17.9-16.5,29.1-21.1
	c11.4-4.8,24.2-7.2,38.4-7.2c19.4,0,35.4,3.9,48,11.9s22.7,20.4,30.3,37.4l-39.3,20.4c-2.8-8.8-7.1-15.8-13-21.1s-14.5-7.9-26-7.9
	c-13.4,0-24.2,4.3-32.2,13c-8.1,8.7-12.2,21.3-12.2,38v33.6c0,16.6,4.1,29.2,12.2,38s18.8,13.1,32.2,13c11.2,0,20.2-3,26.8-9.1
	c6.7-6,11.8-13.6,14.8-22l37.2,21.6c-7.8,16-18,28.4-30.8,37C1409.7,351.1,1393.6,355.4,1374.2,355.4z"/>
<path class="st1" d="M1572.2,182.9v168.9h-45.6V182.9h-56.7v-40.5h159v40.5H1572.2z"/>
<path class="st1" d="M1660.1,351.8V142.4H1799v40.5h-93.3v42.6h79.5V266h-79.5v85.8L1660.1,351.8z"/>
</svg>
